<svg width="45" height="50" viewBox="0 0 45 50" fill="none" xmlns="http://www.w3.org/2000/svg">
<path d="M2.31694 23.2413C2.70145 22.9803 3.10421 22.7309 3.52521 22.4931C16.1114 15.3721 28.7128 8.2663 41.3292 1.17585C41.3917 1.14097 41.4471 1.10865 41.4953 1.07886C41.508 1.07096 41.5237 1.06641 41.54 1.06596C41.5564 1.0655 41.5724 1.06916 41.5855 1.07636C41.5986 1.08355 41.6081 1.09385 41.6125 1.10564C41.6168 1.11742 41.6157 1.13 41.6095 1.14137C41.5392 1.27063 41.4867 1.40403 41.4519 1.54157C41.12 2.86085 40.7515 4.17457 40.3466 5.48272C40.2948 5.65181 40.2065 5.87656 40.0817 6.15696C40.0697 6.18481 40.0472 6.20938 40.0171 6.22759C39.6226 6.46963 39.2227 6.70518 38.8176 6.93424C27.7871 13.1722 16.7663 19.4189 5.75541 25.6745C4.7188 26.2632 3.70216 26.85 2.7055 27.435C2.69073 27.4436 2.67318 27.4492 2.65466 27.451C2.63615 27.4528 2.61735 27.4508 2.60021 27.4453C2.58307 27.4398 2.56822 27.4309 2.5572 27.4195C2.54617 27.4082 2.53938 27.3948 2.53752 27.3807C2.37024 26.0349 2.2793 24.6846 2.2647 23.3297C2.26474 23.313 2.26941 23.2966 2.27841 23.2813C2.28741 23.2661 2.30054 23.2525 2.31694 23.2413Z" fill="white"/>
<path d="M6.64912 35.623L20.1081 44.0734C20.1672 44.1103 20.2415 44.131 20.3187 44.132C20.3959 44.1331 20.4715 44.1145 20.5332 44.0792C27.6422 39.9983 34.7845 35.9192 41.96 31.8418C42.1736 31.7204 42.4701 31.601 42.7072 31.4522C42.7152 31.4473 42.725 31.4444 42.7352 31.4437C42.7454 31.4431 42.7556 31.4448 42.7644 31.4487C42.7732 31.4525 42.7802 31.4582 42.7845 31.4652C42.7888 31.4721 42.7901 31.4799 42.7884 31.4874C42.3731 33.0743 41.9133 34.6596 41.4091 36.2435C41.3353 36.4754 41.1849 36.6561 40.9578 36.7855C35.0541 40.1506 29.1631 43.5278 23.2847 46.917C21.3053 48.0589 18.7716 47.9805 16.8949 46.7842C12.6648 44.0886 8.42477 41.401 4.17493 38.7213C2.2535 37.5097 1.77921 35.4289 2.92588 33.7718C3.42978 33.0423 4.31364 32.5194 5.21565 32.0033C17.4278 25.0249 29.6604 18.0724 41.9136 11.1459C41.9183 11.1434 41.9239 11.142 41.9297 11.1418C41.9355 11.1417 41.9412 11.1429 41.946 11.1452C41.9509 11.1475 41.9546 11.1509 41.9569 11.1549C41.9591 11.1589 41.9596 11.1633 41.9585 11.1675C41.5161 12.7237 41.0597 14.2781 40.5893 15.8306C40.479 16.1948 40.4245 16.3525 40.0067 16.5896C28.9291 22.8723 17.8134 29.1936 6.65972 35.5535C6.65216 35.5578 6.64578 35.5632 6.64103 35.5692C6.63629 35.5753 6.6333 35.5819 6.63228 35.5886C6.63127 35.5952 6.63225 35.6018 6.63516 35.6077C6.63808 35.6137 6.64284 35.6189 6.64912 35.623ZM41.6521 11.5131C41.5249 11.576 41.4853 11.7542 41.5341 11.8513C41.5366 11.8564 41.5413 11.8608 41.5473 11.8638C41.5534 11.8668 41.5606 11.8682 41.5679 11.868C41.5752 11.8678 41.5822 11.8658 41.588 11.8624C41.5938 11.859 41.598 11.8543 41.6001 11.8491L41.7177 11.5496C41.7199 11.5432 41.7195 11.5365 41.7166 11.5303C41.7137 11.5241 41.7085 11.5187 41.7014 11.5148C41.6944 11.5109 41.686 11.5086 41.6772 11.5083C41.6684 11.508 41.6597 11.5097 41.6521 11.5131Z" fill="white"/>
<path d="M16.736 35.6505C16.6573 35.6005 16.6595 35.5521 16.7426 35.5054L30.3986 27.7518C30.4052 27.7481 30.413 27.746 30.4211 27.7457C30.4292 27.7454 30.4372 27.747 30.4441 27.7501C30.451 27.7533 30.4565 27.7579 30.4598 27.7634C30.4631 27.7689 30.4642 27.7751 30.4628 27.7811C30.0393 29.3171 29.6062 30.8575 29.1636 32.4022C29.0739 32.7182 28.9589 32.9663 28.5921 33.1745C25.8533 34.7255 23.1357 36.2755 20.4393 37.8244C20.4002 37.8469 20.3522 37.8588 20.3031 37.8582C20.254 37.8575 20.2068 37.8444 20.1691 37.8209L16.736 35.6505Z" fill="white"/>
</svg>
